<svg width="22" height="22" viewBox="0 0 22 22" fill="none" xmlns="http://www.w3.org/2000/svg">
<path fill-rule="evenodd" clip-rule="evenodd" d="M2.22442 6.2791C2.28719 6.21617 2.36176 6.16624 2.44387 6.13217C2.52597 6.0981 2.61398 6.08057 2.70287 6.08057C2.79176 6.08057 2.87978 6.0981 2.96188 6.13217C3.04398 6.16624 3.11855 6.21617 3.18133 6.2791L10.8123 13.9114L18.4432 6.2791C18.5061 6.21627 18.5807 6.16643 18.6627 6.13243C18.7448 6.09842 18.8328 6.08092 18.9217 6.08092C19.0105 6.08092 19.0985 6.09842 19.1806 6.13243C19.2627 6.16643 19.3373 6.21627 19.4001 6.2791C19.463 6.34193 19.5128 6.41653 19.5468 6.49862C19.5808 6.58071 19.5983 6.6687 19.5983 6.75756C19.5983 6.84642 19.5808 6.9344 19.5468 7.0165C19.5128 7.09859 19.463 7.17318 19.4001 7.23601L11.2907 15.3454C11.228 15.4084 11.1534 15.4583 11.0713 15.4924C10.9892 15.5264 10.9012 15.544 10.8123 15.544C10.7234 15.544 10.6354 15.5264 10.5533 15.4924C10.4712 15.4583 10.3966 15.4084 10.3338 15.3454L2.22442 7.23601C2.16148 7.17324 2.11155 7.09867 2.07748 7.01656C2.04342 6.93446 2.02588 6.84645 2.02588 6.75756C2.02588 6.66867 2.04342 6.58065 2.07748 6.49855C2.11155 6.41645 2.16148 6.34188 2.22442 6.2791V6.2791Z" fill="#403C34" fill-opacity="0.75"/>
</svg>
