<svg width="33" height="33" viewBox="0 0 33 33" fill="none" xmlns="http://www.w3.org/2000/svg">
<path d="M28.5416 27.3237V8.37726C28.5416 6.88455 27.3277 5.67062 25.835 5.67062H23.1283V2.96399H20.4217V5.67062H12.3018V2.96399H9.59515V5.67062H6.88852C5.39581 5.67062 4.18188 6.88455 4.18188 8.37726V27.3237C4.18188 28.8164 5.39581 30.0303 6.88852 30.0303H25.835C27.3277 30.0303 28.5416 28.8164 28.5416 27.3237ZM12.3018 24.6171H9.59515V21.9104H12.3018V24.6171ZM12.3018 19.2038H9.59515V16.4972H12.3018V19.2038ZM17.7151 24.6171H15.0084V21.9104H17.7151V24.6171ZM17.7151 19.2038H15.0084V16.4972H17.7151V19.2038ZM23.1283 24.6171H20.4217V21.9104H23.1283V24.6171ZM23.1283 19.2038H20.4217V16.4972H23.1283V19.2038ZM25.835 12.4372H6.88852V9.73057H25.835V12.4372Z" fill="#F2BC5E"/>
</svg>
