<svg width="33" height="33" viewBox="0 0 33 33" fill="none" xmlns="http://www.w3.org/2000/svg">
<path d="M16.742 3.58386C12.256 3.58386 8.62109 7.20418 8.62109 11.6886C8.62109 19.4424 16.742 29.5546 16.742 29.5546C16.742 29.5546 24.863 19.4408 24.863 11.6886C24.863 7.2058 21.2281 3.58386 16.742 3.58386ZM16.742 16.173C15.579 16.173 14.4636 15.7109 13.6412 14.8885C12.8188 14.0661 12.3567 12.9507 12.3567 11.7876C12.3567 10.6246 12.8188 9.50916 13.6412 8.68676C14.4636 7.86435 15.579 7.40233 16.742 7.40233C17.9051 7.40233 19.0205 7.86435 19.8429 8.68676C20.6653 9.50916 21.1274 10.6246 21.1274 11.7876C21.1274 12.9507 20.6653 14.0661 19.8429 14.8885C19.0205 15.7109 17.9051 16.173 16.742 16.173Z" fill="#F2BC5E"/>
</svg>
