<svg width="383" height="383" viewBox="0 0 383 383" fill="none" xmlns="http://www.w3.org/2000/svg">
<circle cx="191.551" cy="191.816" r="191.164" fill="#F2BC5E"/>
<path d="M281.546 109.463C282.704 110.225 284.199 111.879 285.898 114.811C287.557 117.674 289.227 121.434 290.884 126.004C294.196 135.139 297.307 147.101 300.168 160.68C305.884 187.813 310.5 220.922 313.756 249.718C317.519 282.993 291.744 310.253 257.924 310.253H195.28H124.951C91.1354 310.253 65.4599 283.005 69.3757 249.76C72.7675 220.964 77.549 187.848 83.3958 160.71C86.322 147.127 89.4901 135.162 92.8428 126.022C94.5199 121.45 96.2065 117.688 97.8772 114.821C99.5878 111.887 101.09 110.228 102.253 109.463C102.627 109.217 103.005 108.969 103.385 108.718C115.175 100.961 129.909 91.2662 145.752 83.4014C162.153 75.2601 179.331 69.2951 195.28 69.2951C211.164 69.2951 226.61 75.2176 241.267 83.3178C251.658 89.0598 261.337 95.7005 270.421 101.933C274.231 104.547 277.936 107.089 281.546 109.463Z" fill="#A66946" stroke="#A66946" stroke-width="8.16806"/>
<path fill-rule="evenodd" clip-rule="evenodd" d="M89.9343 150.44C87.2749 149.614 84.7254 148.533 82.3134 147.224C75.0902 176.406 69.2622 215.811 65.3197 249.283C61.0982 285.124 88.8627 314.337 124.951 314.337H195.28H257.924C294.013 314.337 321.869 285.12 317.815 249.259C314.024 215.734 308.381 176.261 301.28 147.071C298.872 148.401 296.326 149.503 293.668 150.35C294.52 153.912 295.355 157.645 296.172 161.522C301.849 188.472 306.448 221.436 309.698 250.177C313.168 280.866 289.474 306.169 257.924 306.169H195.28H124.951C93.4081 306.169 69.8217 280.887 73.4317 250.238C76.817 221.497 81.5807 188.526 87.3883 161.57C88.2202 157.708 89.0695 153.99 89.9343 150.44ZM141.326 90.2791C143.385 89.1788 145.467 88.1027 147.568 87.0596C163.755 79.0244 180.261 73.3791 195.28 73.3791C210.169 73.3791 224.901 78.9392 239.292 86.8923C240.437 87.5249 241.571 88.1677 242.696 88.8192C243.94 86.3723 245.405 84.0605 247.064 81.9112C231.092 72.6229 213.61 65.2111 195.28 65.2111C176.101 65.2111 155.667 73.3257 137.218 83.2138C138.795 85.4217 140.174 87.7858 141.326 90.2791Z" fill="#403C34"/>
<path d="M319.517 108.774C319.517 130.639 302.086 148.253 280.719 148.253C259.352 148.253 241.921 130.639 241.921 108.774C241.921 86.9096 259.352 69.2951 280.719 69.2951C302.086 69.2951 319.517 86.9096 319.517 108.774Z" fill="#A66946"/>
<path d="M319.517 108.774C319.517 130.639 302.086 148.253 280.719 148.253C259.352 148.253 241.921 130.639 241.921 108.774C241.921 86.9096 259.352 69.2951 280.719 69.2951C302.086 69.2951 319.517 86.9096 319.517 108.774Z" fill="#403C34"/>
<path d="M319.517 108.774C319.517 130.639 302.086 148.253 280.719 148.253C259.352 148.253 241.921 130.639 241.921 108.774C241.921 86.9096 259.352 69.2951 280.719 69.2951C302.086 69.2951 319.517 86.9096 319.517 108.774Z" stroke="#403C34" stroke-width="8.16806"/>
<path d="M141.181 108.774C141.181 130.639 123.75 148.253 102.383 148.253C81.0157 148.253 63.5848 130.639 63.5848 108.774C63.5848 86.9096 81.0157 69.2951 102.383 69.2951C123.75 69.2951 141.181 86.9096 141.181 108.774Z" fill="#A66946"/>
<path d="M141.181 108.774C141.181 130.639 123.75 148.253 102.383 148.253C81.0157 148.253 63.5848 130.639 63.5848 108.774C63.5848 86.9096 81.0157 69.2951 102.383 69.2951C123.75 69.2951 141.181 86.9096 141.181 108.774Z" fill="#403C34"/>
<path d="M141.181 108.774C141.181 130.639 123.75 148.253 102.383 148.253C81.0157 148.253 63.5848 130.639 63.5848 108.774C63.5848 86.9096 81.0157 69.2951 102.383 69.2951C123.75 69.2951 141.181 86.9096 141.181 108.774Z" stroke="#403C34" stroke-width="8.16806"/>
<circle cx="153.433" cy="163.228" r="10.8907" fill="white"/>
<circle cx="153.433" cy="163.228" r="10.8907" fill="#403C34"/>
<path d="M240.559 163.228C240.559 169.242 235.683 174.118 229.669 174.118C223.654 174.118 218.778 169.242 218.778 163.228C218.778 157.213 223.654 152.337 229.669 152.337C235.683 152.337 240.559 157.213 240.559 163.228Z" fill="white"/>
<path d="M240.559 163.228C240.559 169.242 235.683 174.118 229.669 174.118C223.654 174.118 218.778 169.242 218.778 163.228C218.778 157.213 223.654 152.337 229.669 152.337C235.683 152.337 240.559 157.213 240.559 163.228Z" fill="#403C34"/>
<path d="M211.36 201.394L229.45 240.956C236.046 255.382 225.503 271.795 209.641 271.795H173.461C157.599 271.795 147.056 255.382 153.652 240.956L171.742 201.394C179.5 184.43 203.602 184.43 211.36 201.394Z" fill="#F5D0BB" stroke="#403C34" stroke-width="8.16806"/>
<rect width="25.8655" height="8.16806" rx="4.08403" transform="matrix(-0.433958 -0.900933 -0.900933 0.433958 204.927 251.875)" fill="#403C34"/>
<rect x="178.175" y="251.875" width="25.8655" height="8.16806" rx="4.08403" transform="rotate(-64.281 178.175 251.875)" fill="#403C34"/>
<rect x="180.66" y="228.572" width="21.7815" height="10.8907" rx="5.44537" fill="#403C34"/>
</svg>
