<svg width="33" height="33" viewBox="0 0 33 33" fill="none" xmlns="http://www.w3.org/2000/svg">
<path fill-rule="evenodd" clip-rule="evenodd" d="M6.21005 28.7427C6.21005 28.7427 4.18005 28.7427 4.18005 26.7127C4.18005 24.6827 6.21005 18.5927 16.3601 18.5927C26.5101 18.5927 28.5401 24.6827 28.5401 26.7127C28.5401 28.7427 26.5101 28.7427 26.5101 28.7427H6.21005ZM16.3601 16.5627C17.9752 16.5627 19.5242 15.9211 20.6663 14.779C21.8084 13.6369 22.4501 12.0879 22.4501 10.4727C22.4501 8.85752 21.8084 7.30851 20.6663 6.16641C19.5242 5.02431 17.9752 4.38269 16.3601 4.38269C14.7449 4.38269 13.1959 5.02431 12.0538 6.16641C10.9117 7.30851 10.2701 8.85752 10.2701 10.4727C10.2701 12.0879 10.9117 13.6369 12.0538 14.779C13.1959 15.9211 14.7449 16.5627 16.3601 16.5627V16.5627Z" fill="#F2BC5E"/>
</svg>
